<svg xmlns="http://www.w3.org/2000/svg" viewBox="0 0 512 512" id="trees">
  <path fill="#96bf16" d="M499.545 286.867c6.425 9.638 10.134 21.209 10.134 33.59 0 33.616-27.269 60.885-60.885 60.885a60.688 60.688 0 0 1-34.713-10.866c-8.384 8.515-20.034 13.817-32.963 13.817-12.851 0-24.396-5.224-32.754-13.66-10.108 7.549-22.646 11.989-36.228 11.989-33.59 0-60.885-27.269-60.885-60.859a60.692 60.692 0 0 1 13.922-38.762c-8.123-10.239-13.007-23.194-13.007-37.272 0-32.023 25.101-58.221 56.705-59.892a45.157 45.157 0 0 1 3.265-.105c1.541 0 3.082.052 4.597.183 0-1.071.052-2.168.131-3.213 2.063-33.668 30.063-60.336 64.254-60.336 35.288 0 63.967 28.392 64.385 63.549a53.502 53.502 0 0 1 4.597-.183c33.12 0 59.97 26.877 59.97 59.997 0 9.168-2.037 17.866-5.746 25.623a56.893 56.893 0 0 1-7.444 11.858 75.038 75.038 0 0 1 2.665 3.657z"></path>
  <path fill="#a36941" d="M325.276 497.847c31.728-32.69 35.337-83.592 33.051-119.571 6.699 3.85 14.48 6.017 22.783 6.017a46.162 46.162 0 0 0 21.901-5.496c-2.287 35.818 1.443 86.521 33.051 119.05H325.276z"></path>
  <path fill="#b37f59" d="M102.307 497.991c41.16-42.408 45.843-108.443 42.876-155.118 8.691 4.995 18.785 7.805 29.556 7.805a59.899 59.899 0 0 0 28.411-7.129c-2.966 46.466 1.873 112.242 42.876 154.442H102.307z"></path>
  <path fill="#a1d51c" d="M496.881 283.21a77.076 77.076 0 0 1 2.664 3.657c-14.548 13.242-35.052 19.511-55.713 15.123a3.298 3.298 0 0 1-2.534-3.892 3.3 3.3 0 0 1 3.892-2.507c23.455 5.015 46.65-5.355 59.135-24.239a56.945 56.945 0 0 1-7.444 11.858z"></path>
  <path fill="#878787" d="M508.647 501.112H3.353a3.265 3.265 0 0 1 0-6.53h505.294a3.265 3.265 0 0 1 0 6.53z"></path>
  <path fill="#a1d51c" d="M375.373 245.729a3.267 3.267 0 0 1-3.265 3.265 3.267 3.267 0 0 1-3.265-3.265c0-31.265-25.44-56.706-56.706-56.706a3.267 3.267 0 0 1-3.265-3.187 45.157 45.157 0 0 1 3.265-.105c1.541 0 3.082.052 4.597.183 0-1.071.052-2.168.131-3.213 32.676 2.378 58.508 29.751 58.508 63.028z"></path>
  <path fill="#a1d51c" d="M327.757 223.422c8.724 12.642 13.791 28.026 13.791 44.455 0 43.594-35.392 78.985-78.985 78.985a78.752 78.752 0 0 1-45.056-14.105c-10.866 11.049-25.989 17.944-42.758 17.944-16.664 0-31.657-6.791-42.497-17.735-13.086 9.769-29.384 15.567-46.989 15.567-43.594 0-78.959-35.392-78.959-78.985 0-19.041 6.765-36.593 18.049-50.28C13.801 206 7.454 189.18 7.454 170.896c0-42.47 34.138-77.105 76.504-77.784.418-.026.862-.026 1.306-.026 2.011 0 3.996.052 5.955.235.026-1.541.078-3.056.183-4.571 2.873-43.463 39.127-77.862 83.347-77.862 45.761 0 82.982 36.828 83.53 82.433 1.959-.183 3.944-.235 5.955-.235 42.993 0 77.81 34.896 77.81 77.81 0 13.843-3.604 26.799-9.925 38.03a.197.197 0 0 1-.052.104 75.972 75.972 0 0 1-7.131 10.526 58.395 58.395 0 0 1 2.821 3.866z"></path>
  <path fill="#96bf16" d="M324.936 219.557a58.395 58.395 0 0 1 2.821 3.866c-18.467 17.108-44.612 25.388-71.097 20.034-1.776-.34-2.899-2.064-2.56-3.839.366-1.776 2.09-2.9 3.866-2.56 28.914 5.825 57.359-6.008 74.101-28.027a75.884 75.884 0 0 1-7.131 10.526zm-181.165-55.008a3.267 3.267 0 0 1-3.265 3.265 3.267 3.267 0 0 1-3.265-3.265c0-33.721-22.489-62.295-53.284-71.437.418-.026.862-.026 1.306-.026 2.011 0 3.996.052 5.955.235.026-1.541.078-3.056.183-4.571 30.587 11.597 52.37 41.191 52.37 75.799zm-56.859 27.205a3.265 3.265 0 0 1-3.265-3.265c0-10.288 8.37-18.659 18.66-18.659a3.265 3.265 0 0 1 0 6.53c-6.688 0-12.13 5.441-12.13 12.129a3.265 3.265 0 0 1-3.265 3.265zm116.939-66.118a3.265 3.265 0 0 1-3.265-3.265c0-10.29 8.37-18.66 18.659-18.66a3.265 3.265 0 0 1 0 6.53c-6.688 0-12.129 5.442-12.129 12.13a3.265 3.265 0 0 1-3.265 3.265zm25.16 66.118a3.265 3.265 0 0 1-3.265-3.265c0-10.288 8.37-18.659 18.659-18.659a3.265 3.265 0 0 1 0 6.53c-6.688 0-12.129 5.441-12.129 12.129a3.265 3.265 0 0 1-3.265 3.265z"></path>
  <path fill="#a1d51c" d="M442.396 259.683a3.265 3.265 0 0 1-3.265-3.265c0-10.29 8.37-18.66 18.659-18.66a3.265 3.265 0 0 1 0 6.53c-6.688 0-12.129 5.442-12.129 12.13a3.265 3.265 0 0 1-3.265 3.265zm-41.484-62.969a3.265 3.265 0 0 1-3.265-3.265c0-10.29 8.37-18.66 18.66-18.66a3.265 3.265 0 0 1 0 6.53c-6.688 0-12.13 5.442-12.13 12.13a3.265 3.265 0 0 1-3.265 3.265zm-20.243 127.643a3.265 3.265 0 0 1-3.265-3.265c0-10.29 8.37-18.659 18.659-18.659a3.265 3.265 0 0 1 0 6.53c-6.688 0-12.129 5.441-12.129 12.129a3.265 3.265 0 0 1-3.265 3.265z"></path>
  <path fill="#96bf16" d="M102.307 267.378a3.265 3.265 0 0 1-3.265-3.265c0-10.29 8.37-18.659 18.659-18.659a3.265 3.265 0 0 1 0 6.53c-6.688 0-12.129 5.441-12.129 12.129a3.264 3.264 0 0 1-3.265 3.265zm93.847 19.296a3.265 3.265 0 0 1-3.265-3.265c0-10.29 8.37-18.661 18.659-18.661a3.265 3.265 0 0 1 0 6.53c-6.688 0-12.129 5.443-12.129 12.131a3.265 3.265 0 0 1-3.265 3.265z"></path>
</svg>
